<svg xmlns="http://www.w3.org/2000/svg" viewBox="0 0 128 128" width="128" height="128" role="img" aria-label="QR code">
  <title>QR code</title>
  <defs>
    <linearGradient id="vs-qr" x1="0" y1="0" x2="1" y2="1">
      <stop offset="0" stop-color="#0fd08c"/>
      <stop offset="1" stop-color="#10b7ce"/>
    </linearGradient>
  </defs>
  <rect x="6" y="6" width="116" height="116" rx="32" fill="url(#vs-qr)"/>
  <rect x="6" y="6" width="116" height="116" rx="32" fill="none" stroke="#071310" stroke-opacity="0.18" stroke-width="3"/>

    <g fill="#071310">
      <rect x="26" y="26" width="30" height="30" rx="7"/>
      <rect x="72" y="26" width="30" height="30" rx="7"/>
      <rect x="26" y="72" width="30" height="30" rx="7"/>
      <rect x="72" y="72" width="12" height="12" rx="3"/>
      <rect x="90" y="72" width="12" height="12" rx="3"/>
      <rect x="72" y="90" width="12" height="12" rx="3"/>
      <rect x="62" y="62" width="8" height="8" rx="2"/>
    </g>
    <g fill="#ffffff" fill-opacity="0.85">
      <rect x="36" y="36" width="10" height="10" rx="2"/>
      <rect x="82" y="36" width="10" height="10" rx="2"/>
      <rect x="36" y="82" width="10" height="10" rx="2"/>
    </g>
</svg>
